<svg xmlns="http://www.w3.org/2000/svg" viewBox="0 0 500 500"><g id="freepik--Floor--inject-34"><path d="M481.76,465.64c0,.14-103.77.26-231.75.26s-231.77-.12-231.77-.26S122,465.38,250,465.38,481.76,465.49,481.76,465.64Z" style="fill:#455a64"></path></g><g id="freepik--Character--inject-34"><path d="M241.48,204.05c-12.13,11.21-20.82,35.28-23.19,51.32s-3.59,33-12.4,46.6c-2.44,3.77-5.55,7.63-5.26,12.1.4,6.27,7.33,10.11,13.59,10.64s12.62-1,18.79.13c11.35,2.11,20.22,13,31.76,12.86,8.6-.07,16.1-6.55,19.94-14.25s4.71-16.48,5.53-25c2.47-25.79,4.3-44.36,6.77-70.15" style="fill:#FF725E"></path><path d="M214.16,299a7.36,7.36,0,0,1-3.6-5.51c.15,0,.58,1.39,1.58,2.9S214.26,298.87,214.16,299Z" style="fill:#fafafa"></path><path d="M263.42,326.83a2.85,2.85,0,0,1-.67,0l-1.91-.11c-1.66-.12-4-.31-7-.62-5.91-.61-14.05-1.71-22.94-3.49a83.32,83.32,0,0,1-12.4-3.17,27,27,0,0,1-9-5.28,17.91,17.91,0,0,1-4.24-5.63,14.44,14.44,0,0,1-.69-1.79,2.68,2.68,0,0,1-.15-.65s.28.88,1,2.35a18.32,18.32,0,0,0,4.29,5.45,27.26,27.26,0,0,0,8.93,5.1A86.43,86.43,0,0,0,231,322.1c8.87,1.77,17,2.93,22.88,3.63l7,.79,1.9.2A2.8,2.8,0,0,1,263.42,326.83Z" style="fill:#fafafa"></path><path d="M258.61,313.64a8.07,8.07,0,0,1-2.94-1.68,14.47,14.47,0,0,1-2-1.83l-.07-.09,0-.07c.16-.38.29-.6.34-.58s0,.26-.05.67l0-.16,2.12,1.65A17.4,17.4,0,0,1,258.61,313.64Z" style="fill:#fafafa"></path><path d="M229.59,227.19c0,.14-.81.08-1.45-.6s-.69-1.46-.55-1.47.39.57.92,1.11S229.62,227.05,229.59,227.19Z" style="fill:#fafafa"></path><path d="M225.7,239.57c0,.14-1.09.16-2-.7s-1.06-1.94-.92-1.94.45.84,1.27,1.56S225.72,239.42,225.7,239.57Z" style="fill:#fafafa"></path><path d="M222.51,253.48c0,.07-.28.14-.74.08a3.24,3.24,0,0,1-1.6-.75,3.2,3.2,0,0,1-1-1.45c-.14-.44-.11-.73,0-.74s.42,1,1.39,1.79S222.52,253.33,222.51,253.48Z" style="fill:#fafafa"></path><path d="M219.8,267.18c-.08.12-.82-.19-1.66-.7s-1.46-1-1.39-1.15.82.19,1.66.7S219.87,267.06,219.8,267.18Z" style="fill:#fafafa"></path><path d="M217.28,282.86c-.08.12-.95-.33-1.7-1.26s-1-1.88-.87-1.92.58.74,1.28,1.59S217.36,282.74,217.28,282.86Z" style="fill:#fafafa"></path><path d="M199.68,424,194,449.64l-10.34,19a2.68,2.68,0,0,0,1.24,3.73h0a2.64,2.64,0,0,0,2.46-.11c4.82-2.78,22.47-13.1,22.78-15,.36-2.2,7.79-26.67,7.79-26.67Z" style="fill:#FF725E"></path><g style="opacity:0.6000000000000001"><path d="M184.9,472.38l25.66-16.83-.26,1.08a4.08,4.08,0,0,1-1.56,2.33c-2.09,1.5-8,5.54-21.3,13.33a2.66,2.66,0,0,1-2.54.09Z" style="fill:#fff"></path></g><g style="opacity:0.6000000000000001"><path d="M207.34,446a1.63,1.63,0,0,0-.94,2,1.57,1.57,0,0,0,1.94.95,1.72,1.72,0,0,0,1-2.08,1.63,1.63,0,0,0-2.12-.77" style="fill:#fff"></path></g><path d="M193.47,462.66a5.84,5.84,0,0,0-4.55-3.82c0-.07.36-.19,1-.12a4.15,4.15,0,0,1,2.19,1,4.22,4.22,0,0,1,1.33,2C193.59,462.27,193.54,462.66,193.47,462.66Z" style="fill:#263238"></path><path d="M190.81,465.63c-.14.08-.76-.95-2-1.65a21.82,21.82,0,0,0-2.41-.93,3,3,0,0,1,2.7.43C190.51,464.29,191,465.6,190.81,465.63Z" style="fill:#263238"></path><path d="M197.93,459.11a27,27,0,0,0-2.9-2.76,26.86,26.86,0,0,0-3.57-1.81,7.37,7.37,0,0,1,6.47,4.57Z" style="fill:#263238"></path><path d="M200.31,451.45c-.11.14-1.37-.8-3.19-1.31s-3.38-.44-3.4-.61a6.69,6.69,0,0,1,6.59,1.92Z" style="fill:#263238"></path><path d="M202.17,444a13.52,13.52,0,0,0-3.29-1.46,13,13,0,0,0-3.59,0c0-.06.33-.32,1-.51a5.88,5.88,0,0,1,5.16,1.08C202,443.54,202.22,443.91,202.17,444Z" style="fill:#263238"></path><path d="M199.28,441.09a2.09,2.09,0,0,1,.2-1,6.93,6.93,0,0,1,1.39-2.34,3,3,0,0,1,1.62-1.11,1.1,1.1,0,0,1,1.13.53,1.76,1.76,0,0,1,.12,1.25,3.82,3.82,0,0,1-4.08,2.63,4.41,4.41,0,0,1-3.66-3.28,1.56,1.56,0,0,1,.23-1.26,1.07,1.07,0,0,1,1.21-.28,3.78,3.78,0,0,1,1.47,1.29,7.68,7.68,0,0,1,1.26,2.41,2.27,2.27,0,0,1,.17,1,11.78,11.78,0,0,0-1.75-3.14,3.6,3.6,0,0,0-1.3-1.09.56.56,0,0,0-.66.15,1.05,1.05,0,0,0-.11.84,3.94,3.94,0,0,0,3.21,2.8,3.29,3.29,0,0,0,3.49-2.18,1.27,1.27,0,0,0,0-.87.58.58,0,0,0-.62-.3,2.81,2.81,0,0,0-1.4.91A10,10,0,0,0,199.28,441.09Z" style="fill:#263238"></path><path d="M279.7,433.43,278.92,454s20.63,7.7,20.85,11.51l-39.9-.08-.1-32.07Z" style="fill:#FF725E"></path><g style="opacity:0.6000000000000001"><path d="M266.58,452.23a1.63,1.63,0,0,0-1.13,1.86,1.56,1.56,0,0,0,1.83,1.13,1.71,1.71,0,0,0,1.19-2,1.63,1.63,0,0,0-2-1" style="fill:#fff"></path></g><g style="opacity:0.6000000000000001"><path d="M259.87,465.41l.11-3.23,38.22,1.28s1.77.78,1.57,2Z" style="fill:#fff"></path></g><path d="M279.56,453.78c0,.2-1,.28-1.94.91s-1.47,1.44-1.65,1.36.11-1.2,1.29-1.94S279.61,453.6,279.56,453.78Z" style="fill:#263238"></path><path d="M283.75,455.52c0,.19-.8.52-1.47,1.34s-.85,1.7-1,1.69-.31-1.11.53-2.12S283.74,455.34,283.75,455.52Z" style="fill:#263238"></path><path d="M286.11,460.54c-.17,0-.44-.94.06-2s1.41-1.49,1.5-1.33-.49.73-.89,1.61S286.31,460.52,286.11,460.54Z" style="fill:#263238"></path><path d="M279.22,449.08c-.08.18-1-.09-2.08,0s-2,.42-2.06.25.73-.86,2-.93S279.32,448.93,279.22,449.08Z" style="fill:#263238"></path><g style="opacity:0.30000000000000004"><polygon points="279.54 437.5 279.4 441.16 259.79 440.95 259.77 437.65 279.54 437.5"></polygon></g><path d="M279.3,444.93a3.73,3.73,0,0,1-2,0,8.57,8.57,0,0,1-2.09-.64,9.78,9.78,0,0,1-1.14-.61,2.41,2.41,0,0,1-.6-.47.85.85,0,0,1-.09-1,1,1,0,0,1,.85-.44,2.72,2.72,0,0,1,.75.1,7.22,7.22,0,0,1,1.24.43,7.07,7.07,0,0,1,1.84,1.21c.93.86,1.24,1.59,1.18,1.63s-.54-.55-1.48-1.26a8.18,8.18,0,0,0-1.78-1,7.73,7.73,0,0,0-1.15-.35c-.42-.11-.78-.12-.89.07s-.05.1,0,.22a2,2,0,0,0,.45.35,9.36,9.36,0,0,0,1.05.6,11,11,0,0,0,1.93.75A12.75,12.75,0,0,1,279.3,444.93Z" style="fill:#263238"></path><path d="M279.05,445.21a3.16,3.16,0,0,1-.53-1.93,6.61,6.61,0,0,1,.28-2.19,6.94,6.94,0,0,1,.51-1.21,1.66,1.66,0,0,1,1.28-1,1,1,0,0,1,.83.56,2.92,2.92,0,0,1,.21.73,4.69,4.69,0,0,1,0,1.35,4.64,4.64,0,0,1-.86,2.06c-.78,1-1.6,1.26-1.61,1.2s.61-.47,1.21-1.47a4.54,4.54,0,0,0,.64-1.87,4.14,4.14,0,0,0,0-1.16c-.06-.42-.22-.76-.38-.72s-.53.31-.7.65a6.45,6.45,0,0,0-.49,1.08,6.94,6.94,0,0,0-.4,2C279,444.45,279.15,445.18,279.05,445.21Z" style="fill:#263238"></path><path d="M240.76,207.78s-12.62,19.93-14.44,27.56-36,191.78-36,191.78l36.9,11.1a0,0,0,0,0,0,0l32.22-150.66L250,437.11a1,1,0,0,0,1,1.08l37.09-1.14a1,1,0,0,0,1-.95c.91-14.53,12.19-196,10.12-201.27-2.16-5.52-7.82-24.68-7.82-24.68Z" style="fill:#263238"></path><path d="M213.54,146.06c-2,1.47-2.09,4.37-1.66,6.8s1.21,5,.36,7.27a18.39,18.39,0,0,1-2.57,3.92c-.89,1.29-1.57,2.93-1,4.41,1,2.75,5.31,3,6.4,5.71.62,1.55-.09,3.3-.94,4.73s-1.9,2.86-2,4.53A4.49,4.49,0,0,0,217,188c1.8-.27,3.21-1.62,4.74-2.6s3.68-1.58,5.07-.4c1.63,1.39,1,4,1,6.11a6.56,6.56,0,0,0,3.29,5.76,4.72,4.72,0,0,0,6.11-1.6c.56-1,.8-2.39,1.87-2.82,1.34-.55,2.64.86,4.05,1.21a3.7,3.7,0,0,0,3.95-2.1,7.5,7.5,0,0,0,.41-4.73c-1.14-6.27-5.79-11.21-8.88-16.78a35.61,35.61,0,0,1-4.37-14.61c-.24-3.16,0-6.34-.33-9.49a16.76,16.76,0,0,0-3-8.87c-1.93-2.5-5.19-4.16-8.28-3.49" style="fill:#FF725E"></path><path d="M254.43,72.15c-9.63-.27-18.87,7.28-20.52,16.77-.86,4.93.06,10.28-2.21,14.73-3,5.89-10.88,8.61-12.65,15-1.48,5.33,2,11.11.53,16.44-1.09,3.85-4.54,6.57-6.22,10.2a11.58,11.58,0,0,0,.77,11.08,10.55,10.55,0,0,0,10,4.57c2.43-.35,4.63-1.59,7-2.35,5-1.66,10.52-1.05,15.78-.32s10.66,1.58,15.82.37,10.12-5,10.89-10.3c.5-3.41-.78-6.79-1.83-10.07C264.87,116.59,268,93,263.16,70.74" style="fill:#FF725E"></path><path d="M280.07,82.72c.85,5.72,2.4,11.38,4.86,14.92,2,2.85,5.86,4.49,6.45,7.91.49,2.89-1.23,5.76-.95,8.67.44,4.59,5.5,7.39,6.93,11.77,1.2,3.65-.45,7.78-3.23,10.42s-6.5,4.05-10.21,5.05c-5.29,1.42-11.7,1.86-15.5-2.1-2.6-2.7-3.19-6.72-3.51-10.46-.89-10-.85-20.07-.82-30.11" style="fill:#FF725E"></path><path d="M245.49,92.35A17.23,17.23,0,0,1,261,73.06c9.18-.87,17.34,6,18.71,15.08,1.21,8,2.25,16.06,2.21,19-.11,8.84-5.28,12.28-7.38,13.31a10.89,10.89,0,0,1-2.33.58h0a.06.06,0,0,0,0,.07l2,10.14c.89,6.65-2.82,12.58-9.46,13.55s-11.86-4.14-12.88-10.79Z" style="fill:#ffbe9d"></path><path d="M277.91,92c-.14.21-1.31-.42-2.8-.19s-2.49,1.13-2.67,1,0-.42.46-.84a3.8,3.8,0,0,1,2.1-1,3.67,3.67,0,0,1,2.27.38C277.78,91.61,278,91.91,277.91,92Z" style="fill:#263238"></path><path d="M264.43,94.64c-.14.21-1.31-.42-2.81-.2s-2.48,1.13-2.67,1,0-.42.47-.84a3.86,3.86,0,0,1,2.1-1,3.66,3.66,0,0,1,2.27.39C264.3,94.24,264.51,94.55,264.43,94.64Z" style="fill:#263238"></path><path d="M270,103.26a10,10,0,0,1,2.36-.79c.38-.09.73-.22.76-.49a2,2,0,0,0-.42-1.1l-1.56-2.74c-2.17-3.91-3.8-7.15-3.64-7.24s2,3,4.22,6.93l1.51,2.77a2.28,2.28,0,0,1,.41,1.47,1,1,0,0,1-.54.65,2.73,2.73,0,0,1-.64.18A9.53,9.53,0,0,1,270,103.26Z" style="fill:#263238"></path><path d="M272.12,121s-5.7,1.32-13.56-2c0,0,3.39,7.3,14.09,4.7Z" style="fill:#eb996e"></path><path d="M269.92,107a2.72,2.72,0,0,0-2.56-.65,2.5,2.5,0,0,0-1.57,1.16,1.57,1.57,0,0,0,.14,1.8,1.83,1.83,0,0,0,2,.21,5.78,5.78,0,0,0,1.74-1.42,1.59,1.59,0,0,0,.36-.5A.49.49,0,0,0,270,107" style="fill:#eb996e"></path><path d="M265.78,104.94c.24,0,.48,1.57,2,2.52s3.25.52,3.3.75-.34.37-1.07.5a4.13,4.13,0,0,1-2.74-.53A3.59,3.59,0,0,1,265.7,106C265.54,105.38,265.66,105,265.78,104.94Z" style="fill:#263238"></path><path d="M263.66,90.37c-.09.43-1.61.45-3.33.92s-3.08,1.15-3.36.82c-.13-.16.06-.58.57-1a6,6,0,0,1,5.1-1.33C263.33,89.89,263.7,90.17,263.66,90.37Z" style="fill:#FF725E"></path><path d="M276.65,87.88c-.21.38-1.3.18-2.54.34s-2.25.56-2.55.24c-.13-.15,0-.52.4-.91a3.57,3.57,0,0,1,2-.85,3.49,3.49,0,0,1,2.12.39C276.55,87.37,276.74,87.7,276.65,87.88Z" style="fill:#FF725E"></path><path d="M273.72,93.86a1.39,1.39,0,0,0,1.12,1.59,1.34,1.34,0,0,0,1.61-1,1.41,1.41,0,0,0-1.13-1.59A1.34,1.34,0,0,0,273.72,93.86Z" style="fill:#263238"></path><path d="M260.32,96.5a1.39,1.39,0,0,0,1.13,1.58,1.33,1.33,0,0,0,1.6-1,1.39,1.39,0,0,0-1.12-1.59A1.34,1.34,0,0,0,260.32,96.5Z" style="fill:#263238"></path><path d="M246.46,134.31l27.16-5.57,5.91-.2-.42,18s-14.94,4.64-15.49,4.93-10.33,0-10.33,0Z" style="fill:#ffbe9d"></path><path d="M257.17,77.29a14.44,14.44,0,0,0-2.41,14.32c1.26,3.19,3.71,6.13,3.5,9.55-.26,4.24-4.59,7.56-4.35,11.81.26,4.78,6.38,7.8,6.39,12.58s-2.95,6.72-8.64,7.76c-3.65.66-5.67-3.85-7.48-7.09s-2.4-7-2.77-10.68a110,110,0,0,1-.29-18.42c.35-5,1.08-10,3.65-14.29a18.52,18.52,0,0,1,12.17-8.47" style="fill:#FF725E"></path><path d="M281.42,86.16c-1.83,2.79-7.63,1.07-11.14-.85A8.33,8.33,0,0,1,258.9,83c-2,2.55-6.08,1.71-7.56-1.17s-.65-6.84,1.39-9.36a13.08,13.08,0,0,1,8-4.34,18.48,18.48,0,0,1,18.78,7.74c1.92,2.91,3.08,6.84,1.94,10.33" style="fill:#FF725E"></path><path d="M171.23,152.76l-5.95-12.09-2.79-6.1c-.7-1.53.33-2.24,1.19-1.28.33.37,4.13,5.12,4.13,5.12l-4-8.52c-1.26-2.69.55-2.73,1.25-1.81s5.49,8.85,5.49,8.85c-5.07-10.56-4.32-11.71-3.52-12s5.34,9.33,5.34,9.33a9.63,9.63,0,0,1,2.13-3.44c2.33-2.35,7.15-1.35,7.61-.13s-1.08,1.88-1.08,1.88a4.12,4.12,0,0,0-5.77,4.89c1,3.14,4.94,1.93,5-.45.16-5.22,2.2-3.92,2.2-3.92l.35,11.38,2.88,5.22,22.63,29.85L215,168.84l17.07,16.76-11.63,13a16,16,0,0,1-26.1-2.88Z" style="fill:#ffbe9d"></path><path d="M337.74,131.29c-21.54-1.24-56.27-4-59-3.07,0,0,2.42,16-12.23,18.31s-20-12.22-20-12.22-15,4.27-20.56,13.49-12.39,19.54-12.39,19.54l20.14,19.8,5.63-6.18,4.07,13.52-2.59,13.3,50.68,2.37,3.5-58.25,42.8-3.52Z" style="fill:#455a64"></path><path d="M233.66,161.78c.15,0,2.42,7.08,5.06,15.91s4.66,16,4.51,16.07-2.42-7.07-5.06-15.91S233.51,161.83,233.66,161.78Z" style="fill:#263238"></path><path d="M304.69,139.17c.11.15-3.27,2.15-6.1,6s-3.88,7.57-4.06,7.5a8.08,8.08,0,0,1,.64-2.46,21.19,21.19,0,0,1,2.95-5.39,21.76,21.76,0,0,1,4.37-4.33A7.67,7.67,0,0,1,304.69,139.17Z" style="fill:#263238"></path><path d="M256.94,173.13a.33.33,0,0,1-.05-.15.17.17,0,0,1,0-.14.25.25,0,0,1,.21-.22.42.42,0,0,1,.34.12.87.87,0,0,0,.11.09,1.56,1.56,0,0,0,1.27.48,1.25,1.25,0,0,0,.83-.57,1.28,1.28,0,0,0,.18-1,1.32,1.32,0,0,0-.4-.71,2.11,2.11,0,0,0-.77-.38c-.37-.13-.59-.2-.66-.24a1.93,1.93,0,0,1-.43-.23,1.37,1.37,0,0,1-.58-.91l0-.16a1.62,1.62,0,0,1,.3-1.17,1.65,1.65,0,0,1,1-.68,1.68,1.68,0,0,1,.55,0,1.54,1.54,0,0,1,1,.47.56.56,0,0,1,.09.17.3.3,0,0,1,0,.16.32.32,0,0,1-.23.21.25.25,0,0,1-.23,0,1.24,1.24,0,0,0-1-.32,1,1,0,0,0-.62.42,1,1,0,0,0-.17.84.78.78,0,0,0,.27.46,2.42,2.42,0,0,0,.71.35,5.22,5.22,0,0,1,.84.33,1.84,1.84,0,0,1,1.09,1.3,1.58,1.58,0,0,1,0,.38,1.89,1.89,0,0,1-.45,1.25A2,2,0,0,1,259,174a1.81,1.81,0,0,1-.92-.05A2.29,2.29,0,0,1,256.94,173.13Z" style="fill:#fff"></path><path d="M266.32,172s0,0,0,0a.32.32,0,0,1-.26.39.27.27,0,0,1-.18,0,.39.39,0,0,1-.24-.32c0-.05-.12-1.22-.33-3.5-.37,1.53-.66,2.74-.86,3.62-.05.19-.07.3-.08.32a.39.39,0,0,1-.28.31H264a.39.39,0,0,1-.32-.24l-1.48-3.38c.11,1.3.19,2.51.24,3.6v0c0,.22-.07.35-.27.39a.28.28,0,0,1-.18,0,.39.39,0,0,1-.24-.32s-.13-1.57-.36-4.63c-.06-.79-.09-1.21-.09-1.27a.24.24,0,0,1,0-.15.31.31,0,0,1,.26-.23h.1a.25.25,0,0,1,.24.14l1.12,2.61.86,2,1.25-5.26a.22.22,0,0,1,0-.1.36.36,0,0,1,.26-.22.29.29,0,0,1,.16,0,.35.35,0,0,1,.25.25c0,.08,0,.18,0,.28Q266.3,171.37,266.32,172Z" style="fill:#fff"></path><path d="M268.65,171.52c0,.23-.09.37-.27.41a.31.31,0,0,1-.19,0,.4.4,0,0,1-.23-.32l-.44-5.9a.62.62,0,0,1,0-.13.32.32,0,0,1,.26-.27.33.33,0,0,1,.17,0,.3.3,0,0,1,.23.23Q268.64,171.32,268.65,171.52Z" style="fill:#fff"></path><path d="M273.48,170.85l-2.81.59a.32.32,0,0,1-.19,0,.5.5,0,0,1-.23-.31h0q0-.16-.44-5.9s0-.08,0-.12a.32.32,0,0,1,.26-.27h.16a.34.34,0,0,1,.24.26c0,.26.08.8.14,1.62.2,2.51.3,3.84.32,4l2.38-.5a.41.41,0,0,1,.19,0,.34.34,0,0,1,.28.27.37.37,0,0,1-.29.42Z" style="fill:#fff"></path><path d="M274.35,163.91l2.67-.56a.45.45,0,0,1,.16,0,.31.31,0,0,1,.3.27.29.29,0,0,1,0,.13.4.4,0,0,1-.29.29l-2.4.51.18,2.34,1.73-.37h.19a.32.32,0,0,1,.27.27.2.2,0,0,1,0,.11.38.38,0,0,1-.29.3l-1.84.39.17,2.19,2.38-.5a.37.37,0,0,1,.18,0,.32.32,0,0,1,.29.27v.11a.39.39,0,0,1-.29.31l-2.78.58a.34.34,0,0,1-.2,0,.4.4,0,0,1-.23-.32s-.17-2-.47-5.9a.48.48,0,0,1,0-.12A.33.33,0,0,1,274.35,163.91Z" style="fill:#fff"></path><path d="M282.23,162.27a.3.3,0,0,1,.16,0,.36.36,0,0,1,.24.25q.45,5.58.48,6a3.74,3.74,0,0,1-.28,1.66,2.22,2.22,0,0,1-1.67,1.3,2.56,2.56,0,0,1-2.12-.7.46.46,0,0,1-.07-.16.37.37,0,0,1,0-.18.33.33,0,0,1,.25-.22.34.34,0,0,1,.29.08,1.83,1.83,0,0,0,1.61.52,1.46,1.46,0,0,0,1-.8,3.2,3.2,0,0,0,.25-1.9,1.92,1.92,0,0,1-.32.53,1.76,1.76,0,0,1-.94.54l-.19,0a1.54,1.54,0,0,1-1.23-.54,3.59,3.59,0,0,1-.86-1.77c-.07-.34-.13-.69-.17-1.06-.07-.58-.11-1.41-.13-2.5a.34.34,0,0,1,0-.1.31.31,0,0,1,.25-.29.33.33,0,0,1,.17,0,.29.29,0,0,1,.22.23,10.86,10.86,0,0,1,.12,1.31,18.07,18.07,0,0,0,.19,2,4,4,0,0,0,.57,1.47,1,1,0,0,0,1,.51l.11,0a1.51,1.51,0,0,0,.69-.85,4.3,4.3,0,0,0,.37-1.69l-.25-3.28a.76.76,0,0,1,0-.15A.32.32,0,0,1,282.23,162.27Z" style="fill:#fff"></path><path d="M259.48,123.15c1.91,2.59,1.2,6.25-.06,9.2s-3,5.85-3,9.06c0,3,1.54,5.8,2.73,8.59s2,6.09.57,8.76c-1.56,2.9-5.35,4.25-6.43,7.36-1.28,3.7,2,8.1.06,11.52-1.3,2.35-4.7,3-7.07,1.68a8.66,8.66,0,0,1-4.05-6.62,23.43,23.43,0,0,1,.79-8c.84-3.79,1.69-8.12-.58-11.27-1.34-1.85-3.64-3-4.38-5.2-.88-2.56.83-5.28,2.75-7.19s4.24-3.67,5-6.26a11.28,11.28,0,0,0-.31-6.11,19.69,19.69,0,0,1-1-6.1c.14-2.06,1.29-4.22,3.26-4.84,2.78-.88,5.42,1.51,7.36,3.68" style="fill:#FF725E"></path><path d="M233.65,219.7c0,.73,32.42,0,32.42,0l1.26-7.91-25.85-7.76S234,213.15,233.65,219.7Z" style="fill:#FF725E"></path><path d="M267.33,211.81l24.35-5.6s6.62,11.32,5.33,22l-30.94-8.54Z" style="fill:#FF725E"></path><path d="M270.43,218.24a13.49,13.49,0,0,1,7,12.3c-.08,1.58-.45,3.15-.42,4.73a5.22,5.22,0,0,0,1.81,4.2c1.32,1,3.51,1.3,3.67,2.92a2.79,2.79,0,0,1-.75,1.91c-1.41,1.81-3.75,3.21-6,2.58-2.46-.69-3.64-3.45-4.3-5.93-2-7.63-2.23-15.61-2.43-23.5" style="fill:#FF725E"></path><g style="opacity:0.30000000000000004"><path d="M271,218.58a12.49,12.49,0,0,1,6.39,12c-.08,1.58-.45,3.15-.42,4.73a5.22,5.22,0,0,0,1.81,4.2c1.32,1,3.51,1.3,3.67,2.92a2.79,2.79,0,0,1-.75,1.91c-1.41,1.81-3.75,3.21-6,2.58-2.46-.69-3.64-3.45-4.3-5.93-2-7.63-1.27-13.12-1.47-21"></path></g><path d="M264,218.07a47,47,0,0,0-2,33.69,6.3,6.3,0,0,0,2.05,3.42c1.79,1.27,4.25.54,6.3-.22,2.63-1,5.55-2.24,6.54-4.87a7,7,0,0,0-.05-4.51c-.88-2.92-2.85-5.46-3.51-8.43-.59-2.69-.07-5.48-.21-8.22a17.12,17.12,0,0,0-6.45-12.44" style="fill:#FF725E"></path><g style="opacity:0.30000000000000004"><path d="M263.33,219a4,4,0,0,0,2,2.74,3.45,3.45,0,0,0,3.37-.11,3,3,0,0,0,1.37-3,5.1,5.1,0,0,1-3.48,1.37,5,5,0,0,1-3.47-1.4"></path></g><path d="M271.36,214.85c-.77-2.17-3.55-4.27-5.83-3.95l.05,0a3.93,3.93,0,0,0-3.34,1.92,5.63,5.63,0,0,0,6.59,7.72A4.64,4.64,0,0,0,271.36,214.85Z" style="fill:#FF725E"></path><path d="M262.72,218.7a4.83,4.83,0,0,1,1.08.65,6.72,6.72,0,0,0,3.1,1.2,4.15,4.15,0,0,0,2.21-.37,3.39,3.39,0,0,0,1.62-1.9,5.78,5.78,0,0,0-1-5.61,5.06,5.06,0,0,0-5.39-1.53,4.58,4.58,0,0,0-3,3.52,4.51,4.51,0,0,0,.72,3.17,10.94,10.94,0,0,0,.81.95s-.11,0-.29-.16a3.77,3.77,0,0,1-.68-.67,4.56,4.56,0,0,1-.93-3.34,5,5,0,0,1,3.23-3.92,5.48,5.48,0,0,1,5.94,1.64,6.19,6.19,0,0,1,1.07,6.13,3.76,3.76,0,0,1-1.87,2.11,4.51,4.51,0,0,1-2.43.34,6.29,6.29,0,0,1-3.18-1.4A6,6,0,0,1,262.72,218.7Z" style="fill:#263238"></path><path d="M266.7,210.8c.05.07-.44.42-1,1.15a6.79,6.79,0,0,0-1.44,3.29,6.67,6.67,0,0,0,.55,3.55c.38.86.77,1.33.71,1.38s-.54-.34-1-1.21a6.12,6.12,0,0,1-.74-3.78,6.23,6.23,0,0,1,1.69-3.47C266.09,211,266.67,210.75,266.7,210.8Z" style="fill:#263238"></path><path d="M276.63,243.79s-.07.25-.28.65a10.82,10.82,0,0,1-1.05,1.6,16.4,16.4,0,0,1-4.74,4.17,16.72,16.72,0,0,1-6,2.1,12.37,12.37,0,0,1-1.92.12c-.45,0-.7,0-.7-.07s1-.11,2.55-.42A18.53,18.53,0,0,0,275,245.81C276,244.6,276.55,243.75,276.63,243.79Z" style="fill:#263238"></path><path d="M268.5,255.64c-.05.13-1.11-.34-1.75-1.54a2.59,2.59,0,0,1-.34-2.31c.15,0,.21,1,.79,2.06S268.58,255.51,268.5,255.64Z" style="fill:#263238"></path><path d="M273.23,252.73c0,.13-1.08-.15-1.75-1.2s-.53-2.12-.39-2.09.23.91.82,1.8S273.29,252.59,273.23,252.73Z" style="fill:#263238"></path><path d="M276,251.65a16.06,16.06,0,0,0-.59-2.25c-.51-1.17-1.08-2.1-.94-2.19a4.18,4.18,0,0,1,1.42,2,3.9,3.9,0,0,1,.34,1.74C276.18,251.4,276.05,251.67,276,251.65Z" style="fill:#263238"></path><path d="M269.86,243.81a3.44,3.44,0,0,1-.45-.79,21.74,21.74,0,0,1-1-2.26,35.49,35.49,0,0,1-2.14-16c.11-1,.23-1.87.35-2.44a2.6,2.6,0,0,1,.23-.87c.08,0-.1,1.28-.21,3.34a43.49,43.49,0,0,0,.3,8,42.79,42.79,0,0,0,1.82,7.81C269.43,242.59,269.94,243.77,269.86,243.81Z" style="fill:#263238"></path><g style="opacity:0.30000000000000004"><path d="M266.65,222.29a26.76,26.76,0,0,0,0,17.58c.1.29.23.62.52.72a.7.7,0,0,0,.84-.53,2.11,2.11,0,0,0-.07-1.11c-1.23-5.15-2.15-11.31-1.22-16.53"></path></g><path d="M246.66,213a7.43,7.43,0,0,1,2.1-.24,31.93,31.93,0,0,1,5.07.25,30.19,30.19,0,0,1,5,1.07,7.2,7.2,0,0,1,2,.77c0,.15-3.11-.82-7-1.32S246.67,213.14,246.66,213Z" style="fill:#263238"></path><path d="M281.58,213.19c0,.15-2.34.38-5.17.95s-5.09,1.26-5.14,1.12a16.05,16.05,0,0,1,5-1.63A16.66,16.66,0,0,1,281.58,213.19Z" style="fill:#263238"></path><path d="M291.57,220.25a24.72,24.72,0,0,1-2.94-1,62.91,62.91,0,0,0-7.17-2.08,62,62,0,0,0-7.38-1.17,26.42,26.42,0,0,1-3.09-.32,14.14,14.14,0,0,1,3.12,0,45,45,0,0,1,7.46,1,44.25,44.25,0,0,1,7.19,2.25A14.52,14.52,0,0,1,291.57,220.25Z" style="fill:#263238"></path><g style="opacity:0.30000000000000004"><path d="M282.49,208.44c.54,8.44,5.29,14.81,12.45,19.32l2.07.5c.16-.32-.11-1.19-.23-1.53a86.16,86.16,0,0,0-5.43-12.28c-1-1.77-1.41-6.12-2.88-7.5l-6,1.49"></path></g><path d="M264,256.88c.14,0-.92,7.43-2.37,16.56s-2.73,16.5-2.87,16.48.91-7.44,2.36-16.57S263.89,256.85,264,256.88Z" style="fill:#455a64"></path><path d="M249.22,212.36c-.05,0-.27-.23-.45-.74a3.88,3.88,0,0,1-.11-2.08,4,4,0,0,1,1-1.86c.38-.39.69-.53.72-.48a5.94,5.94,0,0,0-1.11,5.16Z" style="fill:#fafafa"></path><path d="M251.67,219.77s-.38-.17-.72-.71a3.42,3.42,0,0,1,.86-4.49c.51-.38.91-.45.93-.39s-.29.26-.69.67a3.59,3.59,0,0,0-.77,4C251.5,219.42,251.73,219.71,251.67,219.77Z" style="fill:#fafafa"></path><path d="M259.57,219.66c0,.05-.34-.06-.69-.45a3,3,0,0,1-.68-1.86,2.92,2.92,0,0,1,.6-1.89c.33-.4.63-.53.67-.48s-.15.28-.36.68a3.47,3.47,0,0,0,.07,3.33C259.41,219.38,259.62,219.59,259.57,219.66Z" style="fill:#fafafa"></path><path d="M239.88,219.93a6.34,6.34,0,0,1-.42-2.32A15.45,15.45,0,0,1,242.93,207a6.85,6.85,0,0,1,1.7-1.62c.06.07-.57.7-1.41,1.85a18.05,18.05,0,0,0-2.52,4.92,17.72,17.72,0,0,0-.87,5.45C239.83,219,240,219.91,239.88,219.93Z" style="fill:#fafafa"></path><path d="M256.07,214.68s-.33-.17-.58-.67a3.4,3.4,0,0,1,.92-4c.45-.34.81-.4.83-.35s-.24.25-.58.62a3.89,3.89,0,0,0-.88,1.69,3.94,3.94,0,0,0,.05,1.9C256,214.35,256.14,214.63,256.07,214.68Z" style="fill:#fafafa"></path><path d="M278.56,213c-.14,0,0-.87-.15-1.87s-.49-1.76-.36-1.84.73.64.88,1.77S278.69,213,278.56,213Z" style="fill:#fafafa"></path><path d="M280.42,216.34c-.06.13-.76-.21-1-1.05s.09-1.53.22-1.47,0,.64.28,1.31S280.51,216.22,280.42,216.34Z" style="fill:#fafafa"></path><path d="M283.87,224.64c-.18,0,.45-1.6.31-3.53s-1-3.34-.88-3.42a5.32,5.32,0,0,1,1.4,3.38A5.38,5.38,0,0,1,283.87,224.64Z" style="fill:#fafafa"></path><path d="M266.68,233.24s-.26.33-.86.61a5.35,5.35,0,0,1-2.49.46,5.48,5.48,0,0,1-2.44-.7c-.56-.34-.83-.65-.79-.7a7.93,7.93,0,0,0,6.58.33Z" style="fill:#fafafa"></path><path d="M272.51,228.12a9.25,9.25,0,0,0-3.1-.3,9.71,9.71,0,0,0-2.88,1.14s.14-.37.62-.75a4.73,4.73,0,0,1,4.55-.64C272.26,227.8,272.54,228.06,272.51,228.12Z" style="fill:#fafafa"></path><path d="M268.44,241.51c.05,0-.11.51-.59,1.17a6.76,6.76,0,0,1-2.47,2,6.64,6.64,0,0,1-3.1.68,2.59,2.59,0,0,1-1.29-.27,8.91,8.91,0,0,0,7.45-3.59Z" style="fill:#fafafa"></path><path d="M273.66,238.45c0,.16-1.35-.06-2.89.37a25,25,0,0,0-2.69,1.16,5,5,0,0,1,5.58-1.53Z" style="fill:#fafafa"></path><path d="M234.16,219.89A4.39,4.39,0,0,1,233,215c.15,0,0,1.18.34,2.52S234.28,219.79,234.16,219.89Z" style="fill:#fafafa"></path><path d="M397.68,168.93a5.62,5.62,0,0,1-1.51-3.55,15.26,15.26,0,0,0-.69-3.87,2.68,2.68,0,0,0-.84-1.2,1.42,1.42,0,0,0-1.4-.21,1.49,1.49,0,0,0-.78,1.32A52.34,52.34,0,0,0,393,167Z" style="fill:#ffbe9d"></path><path d="M397.68,168.93s-.39-.14-1.21-.42-2.07-.71-3.55-1.3l-.11,0,0-.09a30,30,0,0,1-.41-3.07c0-.55-.09-1.11-.14-1.69a8.71,8.71,0,0,1,0-.91,2,2,0,0,1,.29-1,1.44,1.44,0,0,1,1.19-.7,1.85,1.85,0,0,1,1.23.46,3.93,3.93,0,0,1,1.06,2c.33,1.39.3,2.65.47,3.67a5.88,5.88,0,0,0,1.24,3l-.21-.12a3.09,3.09,0,0,1-.47-.51,5.84,5.84,0,0,1-.93-2.34c-.22-1.05-.23-2.31-.57-3.61a3.46,3.46,0,0,0-.93-1.76,1,1,0,0,0-1.63.12,2.43,2.43,0,0,0-.19,1.58l.13,1.68c.1,1.07.17,2.14.32,3l-.12-.13c1.34.57,2.42,1.11,3.24,1.5Z" style="fill:#eb996e"></path><circle cx="340.83" cy="187.02" r="57.97" transform="translate(76.33 471.94) rotate(-75.88)" style="fill:#FF725E"></circle><g style="opacity:0.30000000000000004"><path d="M394.3,181.22c.69,0,1.49,1.49,2,4.43a37.69,37.69,0,0,1-.17,12.61c-.17,1.34-.55,2.69-.87,4.13s-.84,2.89-1.32,4.41a57.33,57.33,0,0,1-4.28,9.24,53.92,53.92,0,0,1-37.44,26.36,56.27,56.27,0,0,1-10.14.92,53.18,53.18,0,0,1-8.78-.82,37.77,37.77,0,0,1-11.92-4.08c-2.59-1.5-3.76-2.77-3.49-3.41.6-1.46,6.63.22,16.08.16a73.33,73.33,0,0,0,7.65-.48,64.91,64.91,0,0,0,8.53-1.66,53.69,53.69,0,0,0,31.39-22.1,66.69,66.69,0,0,0,4.43-7.47c.57-1.24,1.18-2.43,1.67-3.61s1-2.31,1.35-3.43C392.27,187.54,392.72,181.29,394.3,181.22Z"></path></g><g style="opacity:0.30000000000000004"><path d="M338.2,133.47c0,.19-1.27.26-3.51.43a56.14,56.14,0,0,0-9.35,1.5,54.51,54.51,0,0,0-6.2,2,52.79,52.79,0,0,0-6.72,3.2,46.64,46.64,0,0,0-21.36,25.5,51.7,51.7,0,0,0-2,7.17,52.84,52.84,0,0,0-.85,6.45,55.38,55.38,0,0,0,.16,9.46c.23,2.24.38,3.5.19,3.54s-.65-1.13-1.19-3.37a40.34,40.34,0,0,1-1-9.7,49.19,49.19,0,0,1,.56-6.75,49.84,49.84,0,0,1,1.84-7.58,46.39,46.39,0,0,1,22.47-26.82,51.11,51.11,0,0,1,7.14-3.13A49.63,49.63,0,0,1,325,133.6a40,40,0,0,1,9.72-.71C337,133,338.22,133.31,338.2,133.47Z" style="fill:#fff"></path></g><g style="opacity:0.30000000000000004"><path d="M293.17,206.85c-.59.4-2.29-1.13-3.17-3.69s-.49-4.8.22-4.85,1.47,1.79,2.25,4S293.78,206.45,293.17,206.85Z" style="fill:#fff"></path></g><path d="M358.22,179.83a4.72,4.72,0,0,1-.77,1.53,18.63,18.63,0,0,1-3,3.6A21.73,21.73,0,0,1,326,186.38a19.33,19.33,0,0,1-3.32-3.28,4.66,4.66,0,0,1-.91-1.45c.15-.13,1.54,1.9,4.67,4.14a23.25,23.25,0,0,0,5.95,3,21.16,21.16,0,0,0,15.94-.8,23.09,23.09,0,0,0,5.62-3.61C356.88,181.88,358.05,179.72,358.22,179.83Z" style="fill:#fff"></path><path d="M376.49,171.69c-.21,0-.24-1.78-1.75-4a10.67,10.67,0,0,0-3.38-3.2,8.83,8.83,0,0,0-10.56.8,10.81,10.81,0,0,0-2.86,3.67c-1.16,2.46-.91,4.26-1.12,4.25s-.17-.42-.2-1.22a8.65,8.65,0,0,1,.64-3.32,10.78,10.78,0,0,1,2.92-4.11,9.44,9.44,0,0,1,11.68-.88,10.66,10.66,0,0,1,3.5,3.62,8.6,8.6,0,0,1,1.14,3.18C376.6,171.25,376.55,171.69,376.49,171.69Z" style="fill:#fff"></path><path d="M321,173.57c-.2,0-.23-1.77-1.74-4a10.69,10.69,0,0,0-3.39-3.19,8.77,8.77,0,0,0-10.55.8,10.66,10.66,0,0,0-2.87,3.67c-1.15,2.46-.91,4.25-1.11,4.24s-.18-.42-.2-1.22a8.6,8.6,0,0,1,.64-3.31,10.53,10.53,0,0,1,2.92-4.11,9.46,9.46,0,0,1,11.68-.89,10.66,10.66,0,0,1,3.5,3.62,8.57,8.57,0,0,1,1.14,3.19C321.12,173.13,321.07,173.57,321,173.57Z" style="fill:#fff"></path><path d="M399,164.76c-2,2.26-4.08,4.38-5.87,6.8-.45.61-.92,1.41-.56,2.08a1.36,1.36,0,0,0,1.36.62,3.15,3.15,0,0,0,1.43-.65c2.21-1.57,3.67-4,5.08-6.29a2.49,2.49,0,0,0,.5-2.17,1.27,1.27,0,0,0-1.94-.39" style="fill:#ffbe9d"></path><path d="M399,164.76s.24-.44,1-.38a1.31,1.31,0,0,1,1.08.76,2.1,2.1,0,0,1-.19,1.73,36.51,36.51,0,0,1-2.28,3.71,12,12,0,0,1-3.88,3.71,2.18,2.18,0,0,1-1.53.16,1.38,1.38,0,0,1-1-1.18,2.3,2.3,0,0,1,.41-1.38,11.87,11.87,0,0,1,.75-1c1-1.28,2-2.37,2.85-3.27l2-2.1a5.06,5.06,0,0,1,.78-.73,3.9,3.9,0,0,1-.63.87c-.43.53-1.08,1.28-1.89,2.21s-1.76,2-2.74,3.31c-.47.64-1.08,1.34-1,2.07a.87.87,0,0,0,.66.73,1.55,1.55,0,0,0,1.16-.14,12.09,12.09,0,0,0,3.72-3.52c.94-1.29,1.72-2.55,2.33-3.58a1.83,1.83,0,0,0,.25-1.46,1.1,1.1,0,0,0-.84-.67A1.49,1.49,0,0,0,399,164.76Z" style="fill:#eb996e"></path><path d="M400.38,168.22c-1.82,2.39-3.79,4.64-5.41,7.16-.42.64-.83,1.47-.43,2.12a1.38,1.38,0,0,0,1.4.53,3.26,3.26,0,0,0,1.38-.74c2.11-1.72,3.41-4.2,4.66-6.61a2.47,2.47,0,0,0,.36-2.2,1.27,1.27,0,0,0-2-.26" style="fill:#ffbe9d"></path><path d="M400.38,168.22s.21-.46,1-.45a1.32,1.32,0,0,1,1.13.69,2.09,2.09,0,0,1-.08,1.74,36,36,0,0,1-2,3.85,12.14,12.14,0,0,1-3.63,3.95,2.05,2.05,0,0,1-1.52.26,1.4,1.4,0,0,1-1.09-1.11,2.37,2.37,0,0,1,.32-1.4c.22-.4.46-.74.69-1.08.92-1.35,1.85-2.49,2.63-3.44s1.35-1.62,1.87-2.23a4.73,4.73,0,0,1,.73-.78,3.92,3.92,0,0,1-.57.9c-.4.57-1,1.36-1.75,2.34s-1.62,2.14-2.51,3.48c-.43.66-1,1.4-.9,2.13a.85.85,0,0,0,.7.69,1.61,1.61,0,0,0,1.15-.22,12.24,12.24,0,0,0,3.48-3.75c.85-1.35,1.55-2.66,2.09-3.73a1.83,1.83,0,0,0,.16-1.47,1.1,1.1,0,0,0-.88-.61A1.49,1.49,0,0,0,400.38,168.22Z" style="fill:#eb996e"></path><path d="M401.59,172.86c-1.4,1.83-2.91,3.55-4.15,5.49-.32.49-.63,1.12-.33,1.62a1.06,1.06,0,0,0,1.07.4,2.42,2.42,0,0,0,1.06-.56,15.48,15.48,0,0,0,3.57-5.07,1.88,1.88,0,0,0,.27-1.68,1,1,0,0,0-1.49-.2" style="fill:#ffbe9d"></path><path d="M401.59,172.86s.14-.36.75-.36a1,1,0,0,1,.89.53,1.69,1.69,0,0,1-.05,1.37,26.9,26.9,0,0,1-1.55,2.95,9.19,9.19,0,0,1-2.79,3.05,1.63,1.63,0,0,1-1.21.21,1.12,1.12,0,0,1-.88-.9,3,3,0,0,1,.78-1.94c.71-1,1.42-1.91,2-2.63a19.6,19.6,0,0,1,2-2.28,15.92,15.92,0,0,1-1.75,2.51c-.56.75-1.23,1.64-1.91,2.67-.33.51-.75,1.08-.68,1.59s.8.66,1.33.32a9.29,9.29,0,0,0,2.65-2.85c.65-1,1.19-2,1.61-2.85a1.36,1.36,0,0,0,.13-1.09.82.82,0,0,0-.65-.46A1.17,1.17,0,0,0,401.59,172.86Z" style="fill:#eb996e"></path></g><g id="freepik--smiley-faces--inject-34"><circle cx="177.88" cy="66.38" r="40.07" style="fill:#FF725E"></circle><g style="opacity:0.30000000000000004"><path d="M214.84,62.37c.34,0,.76,1,1,3.05a28.29,28.29,0,0,1-.42,8.55,37.29,37.29,0,0,1-1.59,5.76,40.19,40.19,0,0,1-3,6.22,37.17,37.17,0,0,1-25.3,17.82,40.32,40.32,0,0,1-6.86.7,37.7,37.7,0,0,1-6-.44,28.36,28.36,0,0,1-8.19-2.49c-1.8-.92-2.66-1.67-2.53-2,.3-.76,4.4.65,11.06.81a46.3,46.3,0,0,0,5.39-.21,44.09,44.09,0,0,0,6-1.07,36.93,36.93,0,0,0,22.27-15.69,43.84,43.84,0,0,0,3.06-5.33,50.33,50.33,0,0,0,2-5C214,66.73,214,62.39,214.84,62.37Z"></path></g><g style="opacity:0.30000000000000004"><path d="M176.06,29.36c0,.44-3.52.23-8.83,1.61a35.66,35.66,0,0,0-8.81,3.62A32.3,32.3,0,0,0,143.82,52a36,36,0,0,0-2,9.31c-.43,5.46.39,8.88,0,9-.16,0-.55-.76-1-2.31a26.52,26.52,0,0,1-.82-6.74,32.56,32.56,0,0,1,1.59-10,32.05,32.05,0,0,1,15.71-18.74,32.44,32.44,0,0,1,9.58-3.32,26.49,26.49,0,0,1,6.78-.37C175.22,29,176.08,29.19,176.06,29.36Z" style="fill:#fff"></path></g><g style="opacity:0.30000000000000004"><path d="M144.93,80.08c-.59.4-1.94-.59-2.56-2.41s-.18-3.44.52-3.49,1.42,1.16,1.94,2.64S145.54,79.69,144.93,80.08Z" style="fill:#fff"></path></g><path d="M189.9,61.41c.09,0-.53,1.68-2.51,3.63a14.88,14.88,0,0,1-19.81,1c-2.15-1.74-2.94-3.31-2.85-3.35s1.13,1.26,3.29,2.76a15.13,15.13,0,0,0,18.88-.94C188.9,62.78,189.75,61.31,189.9,61.41Z" style="fill:#fff"></path><path d="M161.5,53.3a3.62,3.62,0,0,0-3.64-1.92,2.39,2.39,0,0,0-1.24.42l0,0h0a3.9,3.9,0,0,0-1.46,3.76,3.51,3.51,0,0,0,4.46,2.53A3.61,3.61,0,0,0,161.5,53.3Z" style="fill:#fff"></path><path d="M199.63,53.42A3.62,3.62,0,0,0,196,51.51a2.36,2.36,0,0,0-1.24.42h0a3.94,3.94,0,0,0-1.47,3.76,3.51,3.51,0,0,0,4.47,2.53A3.61,3.61,0,0,0,199.63,53.42Z" style="fill:#fff"></path><circle cx="143.05" cy="248.51" r="34.83" transform="translate(-131.39 331.59) rotate(-76.92)" style="fill:#FF725E"></circle><g style="opacity:0.30000000000000004"><path d="M175.17,245c.52,0,1.11.89,1.53,2.68a21.62,21.62,0,0,1,.12,7.7A31.16,31.16,0,0,1,173,266.32a32.55,32.55,0,0,1-22.94,16.16,31.12,31.12,0,0,1-11.57-.09,21.62,21.62,0,0,1-7.21-2.71c-1.54-1-2.21-1.86-2-2.34.44-1.07,4.12-.26,9.71-.45a40.13,40.13,0,0,0,9.52-1.44,32.4,32.4,0,0,0,18.4-13,39.83,39.83,0,0,0,4.55-8.47C173.53,248.82,174,245.08,175.17,245Z"></path></g><g style="opacity:0.30000000000000004"><path d="M141.47,216.34c0,.42-3.06.29-7.65,1.52a31.2,31.2,0,0,0-7.6,3.16,28.22,28.22,0,0,0-12.62,15,31.45,31.45,0,0,0-1.78,8c-.41,4.73.26,7.71-.16,7.8-.27.1-1.62-2.8-1.68-7.87a28,28,0,0,1,1.35-8.74,27.84,27.84,0,0,1,13.73-16.38,28.08,28.08,0,0,1,8.37-2.86C138.43,215.23,141.52,216.06,141.47,216.34Z" style="fill:#fff"></path></g><g style="opacity:0.30000000000000004"><path d="M114.42,260.42c-.59.4-1.84-.44-2.39-2s-.09-3,.62-3.09,1.4,1,1.84,2.24S115,260,114.42,260.42Z" style="fill:#fff"></path></g><path d="M153.5,244.19c.1,0-.43,1.48-2.15,3.19a12.91,12.91,0,0,1-17.27.86c-1.88-1.53-2.55-2.91-2.46-3s1,1.08,2.9,2.37a13.21,13.21,0,0,0,16.34-.81C152.6,245.36,153.35,244.09,153.5,244.19Z" style="fill:#fff"></path><path d="M128.82,237.14a3.14,3.14,0,0,0-3.17-1.66,2,2,0,0,0-1.07.36l0,0h0a3.4,3.4,0,0,0-1.27,3.27,3,3,0,0,0,3.88,2.2A3.14,3.14,0,0,0,128.82,237.14Z" style="fill:#fff"></path><path d="M165.36,240.5a16.52,16.52,0,0,0-.59-2.65,5.44,5.44,0,0,0-1.68-2.22,5.19,5.19,0,0,0-6.3.11,5.49,5.49,0,0,0-1.61,2.27,16.45,16.45,0,0,0-.5,2.67c-.1.06-.66-1.05-.21-2.89a5.78,5.78,0,0,1,1.69-2.78,5.88,5.88,0,0,1,7.53-.13,5.78,5.78,0,0,1,1.78,2.72C166,239.42,165.46,240.55,165.36,240.5Z" style="fill:#fff"></path><circle cx="370.07" cy="299" r="33.47" style="fill:#FF725E"></circle><g style="opacity:0.30000000000000004"><path d="M400.94,295.65c.52,0,1.1.85,1.53,2.57a20.6,20.6,0,0,1,.16,7.42A29.75,29.75,0,0,1,399,316.19a31.22,31.22,0,0,1-22.13,15.59,29.93,29.93,0,0,1-11.16-.12,20.35,20.35,0,0,1-6.94-2.65c-1.48-1-2.11-1.82-1.91-2.3.45-1.07,4-.34,9.35-.55a38.52,38.52,0,0,0,9.1-1.41,31.23,31.23,0,0,0,17.6-12.39,38.43,38.43,0,0,0,4.39-8.1C399.29,299.29,399.79,295.71,400.94,295.65Z"></path></g><g style="opacity:0.30000000000000004"><path d="M368.55,268.07c0,.43-2.94.31-7.34,1.5a30.26,30.26,0,0,0-7.3,3.05,27.11,27.11,0,0,0-12.1,14.44,29.94,29.94,0,0,0-1.72,7.71c-.4,4.54.23,7.4-.19,7.5-.27.09-1.58-2.69-1.65-7.57a26.71,26.71,0,0,1,1.29-8.42,26.75,26.75,0,0,1,13.21-15.76,26.71,26.71,0,0,1,8.07-2.75C365.63,267,368.6,267.79,368.55,268.07Z" style="fill:#fff"></path></g><g style="opacity:0.30000000000000004"><path d="M342.55,310.45c-.59.39-1.81-.41-2.34-1.95s-.07-2.93.64-3,1.39.93,1.82,2.14S343.16,310.05,342.55,310.45Z" style="fill:#fff"></path></g><path d="M371.6,307.11a14.31,14.31,0,0,0,9.23-4.13c1.34-1.46,2.57-3.68,2.42-5.65a4.44,4.44,0,0,0-3.62-4.12,6.38,6.38,0,0,0-3.94,1.28,12.14,12.14,0,0,1-3.72,1.94c-2,.44-4-.34-5.83-1.12s-3.84-1.6-5.82-1.25a3.83,3.83,0,0,0-3.19,2.18s-1,2.18,1,5.1A14.92,14.92,0,0,0,371.6,307.11Z" style="fill:#fff"></path><path d="M356.39,288.07a3,3,0,0,0-3-1.6,2,2,0,0,0-1,.35l0,0h0a3.3,3.3,0,0,0-1.23,3.15,3,3,0,0,0,3.73,2.11A3,3,0,0,0,356.39,288.07Z" style="fill:#fff"></path><path d="M388.24,288.17a3,3,0,0,0-3-1.59,2,2,0,0,0-1,.34l0,0h0a3.28,3.28,0,0,0-1.23,3.14,2.93,2.93,0,0,0,3.73,2.11A3,3,0,0,0,388.24,288.17Z" style="fill:#fff"></path></g></svg>